<?xml version="1.0" standalone="no"?>
<!DOCTYPE svg PUBLIC "-//W3C//DTD SVG 20010904//EN"
 "http://www.w3.org/TR/2001/REC-SVG-20010904/DTD/svg10.dtd">
<svg version="1.0" xmlns="http://www.w3.org/2000/svg"
 width="550.000000pt" height="550.000000pt" viewBox="0 0 550.000000 550.000000"
 preserveAspectRatio="xMidYMid meet">
<metadata>
Created by potrace 1.14, written by Peter Selinger 2001-2017
</metadata>
<g transform="translate(0.000000,550.000000) scale(0.100000,-0.100000)"
fill="#000000" stroke="none">
<path d="M2475 5439 c-266 -37 -432 -74 -605 -134 -743 -258 -1340 -827 -1630
-1554 -75 -188 -147 -461 -165 -626 -4 -33 -9 -71 -12 -85 -9 -46 -11 -454 -2
-530 24 -213 27 -229 60 -370 232 -988 1011 -1774 1989 -2005 116 -28 221 -46
364 -62 33 -4 151 -8 261 -8 248 0 358 9 540 47 803 163 1472 665 1859 1393
118 220 238 574 262 769 3 22 7 43 10 47 2 4 7 32 9 61 3 29 8 64 11 78 10 41
12 500 3 570 -24 173 -43 275 -69 380 -164 654 -564 1217 -1134 1598 -138 92
-404 225 -561 281 -162 58 -354 106 -526 132 -113 18 -194 23 -374 24 -126 1
-257 -2 -290 -6z m180 -106 c-9 -21 -43 -87 -76 -148 -308 -558 -730 -913
-1243 -1045 -61 -15 -127 -31 -146 -33 -64 -10 -124 -18 -165 -22 -60 -7 -273
-7 -341 0 -63 6 -165 23 -170 28 -2 1 29 50 67 107 259 383 629 699 1049 898
213 101 482 185 694 218 21 3 47 7 57 9 11 2 56 7 102 11 45 3 83 7 84 8 1 1
25 3 53 4 l50 2 -15 -37z m375 21 c25 -2 59 -7 75 -9 17 -3 48 -7 70 -11 470
-70 1002 -333 1353 -668 166 -158 284 -298 406 -481 54 -82 55 -81 -69 -85
-473 -18 -815 45 -1150 212 -90 45 -244 140 -277 171 -7 7 -36 30 -63 51 -216
170 -435 476 -544 760 l-30 78 92 -6 c51 -4 112 -9 137 -12z m-253 -219 c58
-134 138 -403 169 -570 9 -49 18 -97 19 -106 3 -17 10 -70 23 -180 9 -76 8
-379 -2 -459 -26 -217 -68 -415 -127 -600 -40 -124 -109 -300 -117 -300 -10 0
-84 194 -125 330 -33 108 -51 176 -76 295 -10 45 -14 67 -26 145 -2 14 -7 52
-10 85 -4 33 -9 74 -11 90 -5 36 -4 346 0 395 11 117 29 229 60 385 25 123
115 408 162 513 25 55 26 56 37 32 6 -14 16 -38 24 -55z m-221 -171 c-49 -143
-111 -409 -130 -559 -11 -81 -20 -253 -20 -365 1 -114 12 -298 19 -309 1 -3 6
-28 9 -56 3 -27 8 -61 11 -75 2 -14 10 -50 16 -80 33 -166 124 -470 166 -555
20 -39 13 -32 -104 105 -401 471 -874 767 -1464 919 -84 22 -105 30 -79 31
298 16 604 112 870 274 254 155 475 376 662 662 40 61 74 111 75 110 2 -2 -12
-47 -31 -102z m504 -195 c97 -131 288 -306 445 -409 162 -105 486 -242 629
-264 21 -4 41 -8 45 -10 5 -4 153 -26 266 -40 22 -3 69 -5 104 -6 65 0 75 -5
31 -14 -479 -98 -894 -293 -1235 -577 -166 -139 -366 -348 -483 -504 -21 -29
-21 -27 4 40 41 110 103 301 109 336 3 18 8 35 10 39 16 26 68 305 83 445 14
136 7 515 -12 611 -2 12 -7 44 -11 72 -3 28 -17 99 -31 159 -14 59 -27 116
-29 127 -5 21 -32 116 -41 143 -4 10 15 -12 42 -48 27 -37 60 -82 74 -100z
m2026 -851 c139 -277 232 -598 261 -903 10 -101 10 -441 0 -520 -4 -33 -9 -80
-12 -105 -31 -247 -127 -553 -252 -804 l-55 -110 -19 25 c-43 55 -161 253
-212 355 -130 257 -209 515 -233 764 -8 81 -7 309 0 350 3 14 8 50 11 80 8 65
63 280 95 365 34 92 93 214 153 317 59 100 191 278 207 278 5 0 31 -42 56 -92z
m-4549 -43 c110 -176 195 -350 254 -521 30 -87 75 -256 85 -318 3 -21 7 -48 9
-59 17 -86 24 -311 13 -407 -4 -36 -10 -86 -13 -112 -17 -148 -87 -373 -169
-543 -58 -118 -169 -293 -233 -364 l-39 -44 -61 129 c-106 225 -185 475 -217
689 -3 22 -8 51 -11 65 -29 160 -27 589 5 755 5 28 12 68 15 90 27 187 177
615 262 744 19 29 15 33 100 -104z m158 100 c89 -9 301 -54 424 -90 294 -84
533 -194 775 -357 50 -33 93 -64 96 -67 3 -3 21 -18 42 -33 20 -15 42 -33 50
-40 7 -7 29 -26 48 -41 41 -34 205 -193 270 -263 59 -63 176 -207 191 -235 10
-20 9 -21 -14 -15 -14 3 -45 8 -69 11 -24 3 -56 8 -73 11 -16 3 -41 7 -55 9
-57 8 -283 66 -388 100 -309 100 -592 252 -842 451 -159 127 -480 464 -532
557 -8 16 -7 18 9 13 10 -3 41 -8 68 -11z m4168 -7 c-90 -123 -184 -229 -327
-371 -389 -386 -850 -620 -1428 -726 -165 -31 -225 -36 -212 -20 469 616 1009
958 1734 1099 58 11 132 23 165 26 33 4 62 8 64 10 10 9 13 -6 4 -18z m-4004
-399 c347 -348 727 -574 1189 -710 75 -22 151 -42 167 -45 17 -2 37 -7 45 -9
8 -2 28 -6 44 -9 16 -3 52 -10 80 -16 75 -15 98 -18 125 -19 37 -1 21 -9 -34
-16 -28 -4 -68 -11 -90 -15 -22 -5 -56 -12 -75 -15 -195 -34 -542 -150 -729
-244 -271 -137 -479 -290 -722 -531 l-147 -145 44 85 c70 137 133 317 159 450
1 8 6 33 10 55 79 414 1 871 -223 1305 l-54 105 38 -45 c21 -25 99 -106 173
-181z m3854 74 c-3 -10 -10 -23 -14 -28 -4 -6 -28 -61 -53 -122 -61 -148 -105
-315 -122 -458 -4 -27 -8 -53 -11 -57 -2 -5 -4 -83 -4 -175 0 -167 15 -308 47
-443 9 -36 17 -72 19 -81 12 -57 84 -250 133 -359 l59 -128 -56 61 c-31 34
-90 93 -131 133 -66 63 -97 90 -197 175 -156 131 -403 278 -618 369 -173 74
-460 159 -615 185 -19 3 -47 8 -62 11 -25 5 -39 7 -132 19 -49 6 -59 15 -20
16 16 0 38 2 49 4 11 2 38 6 61 10 240 35 507 111 740 211 310 132 591 327
844 586 47 47 86 87 87 87 1 1 0 -7 -4 -16z m-2144 -1015 c-230 -297 -521
-561 -804 -730 -110 -66 -298 -155 -425 -203 -181 -67 -480 -143 -635 -160
-33 -4 -68 -9 -78 -11 -13 -2 -15 1 -8 14 51 91 378 434 531 556 181 144 395
273 602 362 221 95 557 186 778 210 30 4 57 8 59 10 2 2 6 2 9 -1 2 -2 -11
-23 -29 -47z m426 27 c308 -40 670 -155 945 -302 248 -132 466 -303 700 -549
93 -98 230 -265 230 -280 0 -3 -21 -2 -47 1 -70 10 -216 35 -233 40 -8 2 -26
6 -40 9 -131 24 -359 95 -519 162 -206 87 -418 214 -601 361 -159 127 -425
404 -519 541 l-23 33 29 -5 c15 -3 51 -8 78 -11z m-115 -115 c123 -159 344
-386 490 -503 108 -87 310 -222 420 -280 191 -101 452 -198 667 -248 105 -24
125 -34 76 -35 -308 -7 -650 -111 -923 -279 -240 -149 -484 -395 -658 -664
-23 -36 -42 -69 -42 -75 0 -5 -2 -7 -5 -5 -2 3 11 52 30 110 67 207 113 421
132 624 12 121 9 470 -5 560 -7 44 -15 98 -17 119 -19 147 -132 538 -199 691
-30 66 -28 65 34 -15z m-255 -14 c-71 -160 -172 -523 -191 -689 -4 -29 -8 -55
-10 -58 -20 -35 -24 -493 -5 -649 17 -141 73 -395 115 -526 19 -59 31 -103 27
-98 -5 5 -31 43 -59 85 -306 459 -773 754 -1322 835 -19 3 -41 7 -48 9 -7 3
-57 8 -110 11 -217 14 -213 14 -177 25 16 4 44 11 61 13 77 13 312 79 429 121
249 90 430 184 640 330 206 144 452 377 610 578 33 42 61 74 62 73 2 -2 -8
-29 -22 -60z m224 -226 c39 -118 95 -332 106 -405 3 -23 7 -51 10 -64 5 -29
14 -103 24 -206 9 -93 7 -331 -3 -425 -30 -273 -105 -572 -210 -830 l-34 -85
-21 49 c-58 134 -144 399 -165 506 -3 14 -12 61 -21 105 -9 44 -18 98 -21 120
-3 22 -7 45 -9 52 -7 21 -19 226 -19 323 0 99 12 298 18 309 2 3 7 29 10 56
24 191 123 547 201 720 l27 60 34 -85 c19 -47 52 -137 73 -200z m-2039 -840
c0 -5 -2 -10 -4 -10 -3 0 -8 5 -11 10 -3 6 -1 10 4 10 6 0 11 -4 11 -10z
m3992 -44 c76 -8 168 -25 168 -32 0 -3 -31 -51 -69 -107 -182 -267 -440 -521
-716 -705 -170 -113 -431 -239 -635 -305 -129 -43 -327 -87 -450 -103 -30 -3
-64 -8 -75 -10 -38 -7 -225 -15 -225 -9 0 11 80 165 131 252 263 448 615 759
1039 916 152 57 349 98 515 109 64 5 248 1 317 -6z m-3772 -20 c25 -3 59 -8
75 -10 17 -3 53 -8 80 -12 88 -11 308 -71 416 -114 444 -176 781 -496 994
-942 30 -65 58 -131 61 -148 l7 -30 -79 5 c-90 6 -167 14 -204 20 -14 3 -41 7
-60 10 -255 42 -473 112 -725 235 -161 78 -358 202 -489 308 -184 147 -388
369 -525 572 l-71 105 58 5 c66 6 396 3 462 -4z"/>
</g>
</svg>
