<?xml version="1.0" standalone="no"?>
<!DOCTYPE svg PUBLIC "-//W3C//DTD SVG 20010904//EN"
 "http://www.w3.org/TR/2001/REC-SVG-20010904/DTD/svg10.dtd">
<svg version="1.0" xmlns="http://www.w3.org/2000/svg"
 width="512.000000pt" height="512.000000pt" viewBox="0 0 512.000000 512.000000"
 preserveAspectRatio="xMidYMid meet">
<metadata>
Created by potrace 1.14, written by Peter Selinger 2001-2017
</metadata>
<g transform="translate(0.000000,512.000000) scale(0.100000,-0.100000)"
fill="#000000" stroke="none">
<path d="M3565 4850 c-11 -5 -63 -25 -115 -46 -52 -20 -98 -41 -102 -47 -3 -6
-4 -63 -2 -127 l3 -116 -74 -74 -74 -73 -63 3 c-35 2 -94 4 -131 4 l-69 1 -27
-65 -28 -65 -1044 -5 -1044 -5 -50 -25 c-64 -32 -124 -92 -155 -155 l-25 -50
0 -1326 0 -1325 30 -59 c37 -72 114 -138 187 -160 44 -13 138 -15 634 -15
l582 0 -64 -153 c-35 -83 -68 -161 -74 -172 -5 -11 -23 -54 -40 -95 -17 -41
-38 -89 -46 -107 l-14 -32 -230 -3 c-213 -3 -231 -4 -256 -24 -47 -35 -68 -71
-70 -122 -3 -62 15 -103 62 -138 l37 -29 1244 -3 c1376 -3 1285 -7 1339 64 24
32 29 47 29 95 -1 63 -17 95 -69 133 -25 19 -45 21 -257 26 l-230 5 -26 60
c-14 33 -36 83 -48 110 -13 28 -40 91 -61 140 -20 50 -52 125 -70 167 l-32 78
588 0 c579 0 590 0 647 22 77 29 152 104 181 181 22 58 22 59 22 1022 l0 965
90 -7 c82 -5 90 -4 96 13 4 10 21 51 39 89 17 39 38 85 45 104 l13 33 -92 87
-92 86 4 104 4 105 59 50 c32 28 75 67 96 86 l37 35 -48 120 -48 120 -124 0
c-95 0 -129 4 -144 15 -38 29 -136 140 -131 148 3 5 8 55 11 112 3 57 8 107
11 111 2 4 -2 11 -9 16 -16 12 -222 103 -233 103 -5 0 -47 -40 -93 -90 l-84
-90 -104 3 -105 3 -51 59 c-109 124 -121 134 -142 125z m385 -534 c62 -16 146
-51 155 -66 4 -6 -92 -10 -264 -10 -149 0 -271 2 -271 4 0 11 80 49 139 66 79
22 166 24 241 6z"/>
</g>
</svg>
